<?xml version="1.0" encoding="UTF-8" standalone="no"?>
<!DOCTYPE svg PUBLIC "-//W3C//DTD SVG 1.1//EN"
 "http://www.w3.org/Graphics/SVG/1.1/DTD/svg11.dtd">
<!-- Generated by graphviz version 2.40.1 (20161225.0304)
 -->
<!-- Title: %3 Pages: 1 -->
<svg width="1562pt" height="692pt"
 viewBox="0.00 0.00 1561.60 692.00" xmlns="http://www.w3.org/2000/svg" xmlns:xlink="http://www.w3.org/1999/xlink">
<g id="graph0" class="graph" transform="scale(1 1) rotate(0) translate(4 688)">
<title>%3</title>
<polygon fill="#ffffff" stroke="transparent" points="-4,4 -4,-688 1557.6005,-688 1557.6005,4 -4,4"/>
<!-- [root] aws_elb.web -->
<g id="node1" class="node">
<title>[root] aws_elb.web</title>
<polygon fill="none" stroke="#000000" points="529.4619,-540 441.0605,-540 441.0605,-504 529.4619,-504 529.4619,-540"/>
<text text-anchor="middle" x="485.2612" y="-517.8" font-family="Times,serif" font-size="14.00" fill="#000000">aws_elb.web</text>
</g>
<!-- [root] aws_instance.web -->
<g id="node2" class="node">
<title>[root] aws_instance.web</title>
<polygon fill="none" stroke="#000000" points="698.228,-468 580.2945,-468 580.2945,-432 698.228,-432 698.228,-468"/>
<text text-anchor="middle" x="639.2612" y="-445.8" font-family="Times,serif" font-size="14.00" fill="#000000">aws_instance.web</text>
</g>
<!-- [root] aws_elb.web&#45;&gt;[root] aws_instance.web -->
<g id="edge1" class="edge">
<title>[root] aws_elb.web&#45;&gt;[root] aws_instance.web</title>
<path fill="none" stroke="#000000" d="M524.1219,-503.8314C544.5354,-494.2874 569.7335,-482.5065 591.3472,-472.4013"/>
<polygon fill="#000000" stroke="#000000" points="593.1035,-475.4439 600.68,-468.038 590.1388,-469.1027 593.1035,-475.4439"/>
</g>
<!-- [root] aws_security_group.web_inbound_sg -->
<g id="node4" class="node">
<title>[root] aws_security_group.web_inbound_sg</title>
<polygon fill="none" stroke="#000000" points="452.1753,-468 224.3472,-468 224.3472,-432 452.1753,-432 452.1753,-468"/>
<text text-anchor="middle" x="338.2612" y="-445.8" font-family="Times,serif" font-size="14.00" fill="#000000">aws_security_group.web_inbound_sg</text>
</g>
<!-- [root] aws_elb.web&#45;&gt;[root] aws_security_group.web_inbound_sg -->
<g id="edge2" class="edge">
<title>[root] aws_elb.web&#45;&gt;[root] aws_security_group.web_inbound_sg</title>
<path fill="none" stroke="#000000" d="M448.1669,-503.8314C428.7687,-494.3302 404.8442,-482.6121 384.2751,-472.5374"/>
<polygon fill="#000000" stroke="#000000" points="385.609,-469.2935 375.0888,-468.038 382.5299,-475.5799 385.609,-469.2935"/>
</g>
<!-- [root] aws_security_group.web_host_sg -->
<g id="node3" class="node">
<title>[root] aws_security_group.web_host_sg</title>
<polygon fill="none" stroke="#000000" points="1043.1239,-396 837.3986,-396 837.3986,-360 1043.1239,-360 1043.1239,-396"/>
<text text-anchor="middle" x="940.2612" y="-373.8" font-family="Times,serif" font-size="14.00" fill="#000000">aws_security_group.web_host_sg</text>
</g>
<!-- [root] aws_instance.web&#45;&gt;[root] aws_security_group.web_host_sg -->
<g id="edge3" class="edge">
<title>[root] aws_instance.web&#45;&gt;[root] aws_security_group.web_host_sg</title>
<path fill="none" stroke="#000000" d="M698.0116,-435.9468C742.6813,-425.2616 804.789,-410.4053 854.9334,-398.4106"/>
<polygon fill="#000000" stroke="#000000" points="855.8827,-401.7824 864.7941,-396.0519 854.2542,-394.9745 855.8827,-401.7824"/>
</g>
<!-- [root] module.vpc.output.public_subnet_id -->
<g id="node11" class="node">
<title>[root] module.vpc.output.public_subnet_id</title>
<ellipse fill="none" stroke="#000000" cx="1358.2612" cy="-378" rx="161.7933" ry="18"/>
<text text-anchor="middle" x="1358.2612" y="-373.8" font-family="Times,serif" font-size="14.00" fill="#000000">[root] module.vpc.output.public_subnet_id</text>
</g>
<!-- [root] aws_instance.web&#45;&gt;[root] module.vpc.output.public_subnet_id -->
<g id="edge4" class="edge">
<title>[root] aws_instance.web&#45;&gt;[root] module.vpc.output.public_subnet_id</title>
<path fill="none" stroke="#000000" d="M698.0692,-444.3345C798.4217,-434.6377 1009.1731,-414.1473 1187.2612,-396 1201.3769,-394.5616 1216.1458,-393.0368 1230.8387,-391.5073"/>
<polygon fill="#000000" stroke="#000000" points="1231.4066,-394.9672 1240.9896,-390.4487 1230.6805,-388.0049 1231.4066,-394.9672"/>
</g>
<!-- [root] var.ami -->
<g id="node12" class="node">
<title>[root] var.ami</title>
<ellipse fill="none" stroke="#000000" cx="1119.2612" cy="-378" rx="58.9668" ry="18"/>
<text text-anchor="middle" x="1119.2612" y="-373.8" font-family="Times,serif" font-size="14.00" fill="#000000">[root] var.ami</text>
</g>
<!-- [root] aws_instance.web&#45;&gt;[root] var.ami -->
<g id="edge5" class="edge">
<title>[root] aws_instance.web&#45;&gt;[root] var.ami</title>
<path fill="none" stroke="#000000" d="M698.1368,-444.7783C778.6164,-437.0787 927.258,-420.85 1052.2612,-396 1056.9607,-395.0658 1061.8175,-393.9872 1066.6693,-392.8318"/>
<polygon fill="#000000" stroke="#000000" points="1067.7072,-396.1804 1076.5691,-390.3737 1066.0203,-389.3867 1067.7072,-396.1804"/>
</g>
<!-- [root] var.environment -->
<g id="node13" class="node">
<title>[root] var.environment</title>
<ellipse fill="none" stroke="#000000" cx="144.2612" cy="-378" rx="90.3377" ry="18"/>
<text text-anchor="middle" x="144.2612" y="-373.8" font-family="Times,serif" font-size="14.00" fill="#000000">[root] var.environment</text>
</g>
<!-- [root] aws_instance.web&#45;&gt;[root] var.environment -->
<g id="edge6" class="edge">
<title>[root] aws_instance.web&#45;&gt;[root] var.environment</title>
<path fill="none" stroke="#000000" d="M580.4347,-442.8055C502.9903,-433.1447 362.6667,-414.9868 243.2612,-396 235.6796,-394.7944 227.7835,-393.4723 219.9045,-392.1093"/>
<polygon fill="#000000" stroke="#000000" points="220.4125,-388.645 209.9585,-390.3665 219.2043,-395.54 220.4125,-388.645"/>
</g>
<!-- [root] var.instance_ips -->
<g id="node14" class="node">
<title>[root] var.instance_ips</title>
<ellipse fill="none" stroke="#000000" cx="341.2612" cy="-378" rx="89.3774" ry="18"/>
<text text-anchor="middle" x="341.2612" y="-373.8" font-family="Times,serif" font-size="14.00" fill="#000000">[root] var.instance_ips</text>
</g>
<!-- [root] aws_instance.web&#45;&gt;[root] var.instance_ips -->
<g id="edge7" class="edge">
<title>[root] aws_instance.web&#45;&gt;[root] var.instance_ips</title>
<path fill="none" stroke="#000000" d="M580.386,-435.7751C530.8277,-423.8013 459.9623,-406.6795 408.2453,-394.1841"/>
<polygon fill="#000000" stroke="#000000" points="409.0377,-390.7749 398.4954,-391.8284 407.3937,-397.5791 409.0377,-390.7749"/>
</g>
<!-- [root] var.instance_type -->
<g id="node15" class="node">
<title>[root] var.instance_type</title>
<ellipse fill="none" stroke="#000000" cx="542.2612" cy="-378" rx="94.1878" ry="18"/>
<text text-anchor="middle" x="542.2612" y="-373.8" font-family="Times,serif" font-size="14.00" fill="#000000">[root] var.instance_type</text>
</g>
<!-- [root] aws_instance.web&#45;&gt;[root] var.instance_type -->
<g id="edge8" class="edge">
<title>[root] aws_instance.web&#45;&gt;[root] var.instance_type</title>
<path fill="none" stroke="#000000" d="M614.784,-431.8314C602.5376,-422.7412 587.5574,-411.6219 574.3978,-401.8539"/>
<polygon fill="#000000" stroke="#000000" points="576.1758,-398.8149 566.06,-395.665 572.0036,-404.4357 576.1758,-398.8149"/>
</g>
<!-- [root] var.owner_tag -->
<g id="node16" class="node">
<title>[root] var.owner_tag</title>
<ellipse fill="none" stroke="#000000" cx="737.2612" cy="-378" rx="82.5959" ry="18"/>
<text text-anchor="middle" x="737.2612" y="-373.8" font-family="Times,serif" font-size="14.00" fill="#000000">[root] var.owner_tag</text>
</g>
<!-- [root] aws_instance.web&#45;&gt;[root] var.owner_tag -->
<g id="edge9" class="edge">
<title>[root] aws_instance.web&#45;&gt;[root] var.owner_tag</title>
<path fill="none" stroke="#000000" d="M663.9908,-431.8314C676.5752,-422.5857 692.017,-411.2407 705.4744,-401.3536"/>
<polygon fill="#000000" stroke="#000000" points="707.5672,-404.1591 713.5538,-395.4177 703.4227,-398.5179 707.5672,-404.1591"/>
</g>
<!-- [root] module.vpc.output.cidr -->
<g id="node17" class="node">
<title>[root] module.vpc.output.cidr</title>
<ellipse fill="none" stroke="#000000" cx="940.2612" cy="-306" rx="114.9605" ry="18"/>
<text text-anchor="middle" x="940.2612" y="-301.8" font-family="Times,serif" font-size="14.00" fill="#000000">[root] module.vpc.output.cidr</text>
</g>
<!-- [root] aws_security_group.web_host_sg&#45;&gt;[root] module.vpc.output.cidr -->
<g id="edge10" class="edge">
<title>[root] aws_security_group.web_host_sg&#45;&gt;[root] module.vpc.output.cidr</title>
<path fill="none" stroke="#000000" d="M940.2612,-359.8314C940.2612,-352.131 940.2612,-342.9743 940.2612,-334.4166"/>
<polygon fill="#000000" stroke="#000000" points="943.7613,-334.4132 940.2612,-324.4133 936.7613,-334.4133 943.7613,-334.4132"/>
</g>
<!-- [root] module.vpc.output.vpc_id -->
<g id="node18" class="node">
<title>[root] module.vpc.output.vpc_id</title>
<ellipse fill="none" stroke="#000000" cx="682.2612" cy="-306" rx="125.1006" ry="18"/>
<text text-anchor="middle" x="682.2612" y="-301.8" font-family="Times,serif" font-size="14.00" fill="#000000">[root] module.vpc.output.vpc_id</text>
</g>
<!-- [root] aws_security_group.web_host_sg&#45;&gt;[root] module.vpc.output.vpc_id -->
<g id="edge11" class="edge">
<title>[root] aws_security_group.web_host_sg&#45;&gt;[root] module.vpc.output.vpc_id</title>
<path fill="none" stroke="#000000" d="M875.49,-359.9243C837.0981,-349.2103 788.5162,-335.6525 749.6706,-324.8119"/>
<polygon fill="#000000" stroke="#000000" points="750.5893,-321.4346 740.0165,-322.1178 748.7077,-328.177 750.5893,-321.4346"/>
</g>
<!-- [root] aws_security_group.web_inbound_sg&#45;&gt;[root] module.vpc.output.vpc_id -->
<g id="edge12" class="edge">
<title>[root] aws_security_group.web_inbound_sg&#45;&gt;[root] module.vpc.output.vpc_id</title>
<path fill="none" stroke="#000000" d="M224.2314,-443.7125C152.0599,-437.0755 68.1794,-423.5279 45.2612,-396 35.024,-383.7037 34.4359,-371.7819 45.2612,-360 78.5012,-323.823 370.4893,-311.8571 547.3972,-307.9175"/>
<polygon fill="#000000" stroke="#000000" points="547.6453,-311.413 557.5671,-307.697 547.4935,-304.4147 547.6453,-311.413"/>
</g>
<!-- [root] module.vpc.aws_internet_gateway.tfb -->
<g id="node5" class="node">
<title>[root] module.vpc.aws_internet_gateway.tfb</title>
<polygon fill="none" stroke="#000000" points="228.2842,-540 .2383,-540 .2383,-504 228.2842,-504 228.2842,-540"/>
<text text-anchor="middle" x="114.2612" y="-517.8" font-family="Times,serif" font-size="14.00" fill="#000000">module.vpc.aws_internet_gateway.tfb</text>
</g>
<!-- [root] module.vpc.aws_vpc.tfb -->
<g id="node8" class="node">
<title>[root] module.vpc.aws_vpc.tfb</title>
<polygon fill="none" stroke="#000000" points="887.0065,-252 733.5159,-252 733.5159,-216 887.0065,-216 887.0065,-252"/>
<text text-anchor="middle" x="810.2612" y="-229.8" font-family="Times,serif" font-size="14.00" fill="#000000">module.vpc.aws_vpc.tfb</text>
</g>
<!-- [root] module.vpc.aws_internet_gateway.tfb&#45;&gt;[root] module.vpc.aws_vpc.tfb -->
<g id="edge13" class="edge">
<title>[root] module.vpc.aws_internet_gateway.tfb&#45;&gt;[root] module.vpc.aws_vpc.tfb</title>
<path fill="none" stroke="#000000" d="M92.6065,-503.8199C57.2515,-471.9916 -5.2525,-405.2623 33.2612,-360 77.6877,-307.789 529.8456,-260.0143 723.2583,-241.799"/>
<polygon fill="#000000" stroke="#000000" points="723.7582,-245.2676 733.388,-240.8497 723.105,-238.2981 723.7582,-245.2676"/>
</g>
<!-- [root] module.vpc.aws_route.internet_access -->
<g id="node6" class="node">
<title>[root] module.vpc.aws_route.internet_access</title>
<polygon fill="none" stroke="#000000" points="327.0172,-612 95.5052,-612 95.5052,-576 327.0172,-576 327.0172,-612"/>
<text text-anchor="middle" x="211.2612" y="-589.8" font-family="Times,serif" font-size="14.00" fill="#000000">module.vpc.aws_route.internet_access</text>
</g>
<!-- [root] module.vpc.aws_route.internet_access&#45;&gt;[root] module.vpc.aws_internet_gateway.tfb -->
<g id="edge14" class="edge">
<title>[root] module.vpc.aws_route.internet_access&#45;&gt;[root] module.vpc.aws_internet_gateway.tfb</title>
<path fill="none" stroke="#000000" d="M186.784,-575.8314C174.7218,-566.8779 160.0073,-555.9558 146.9926,-546.2955"/>
<polygon fill="#000000" stroke="#000000" points="148.8464,-543.3127 138.7306,-540.1628 144.6742,-548.9335 148.8464,-543.3127"/>
</g>
<!-- [root] module.vpc.aws_subnet.public -->
<g id="node7" class="node">
<title>[root] module.vpc.aws_subnet.public</title>
<polygon fill="none" stroke="#000000" points="1264.7856,-324 1075.7368,-324 1075.7368,-288 1264.7856,-288 1264.7856,-324"/>
<text text-anchor="middle" x="1170.2612" y="-301.8" font-family="Times,serif" font-size="14.00" fill="#000000">module.vpc.aws_subnet.public</text>
</g>
<!-- [root] module.vpc.aws_subnet.public&#45;&gt;[root] module.vpc.aws_vpc.tfb -->
<g id="edge15" class="edge">
<title>[root] module.vpc.aws_subnet.public&#45;&gt;[root] module.vpc.aws_vpc.tfb</title>
<path fill="none" stroke="#000000" d="M1079.8827,-287.9243C1023.9032,-276.7284 952.3973,-262.4272 897.092,-251.3662"/>
<polygon fill="#000000" stroke="#000000" points="897.4535,-247.8692 886.9613,-249.34 896.0806,-254.7333 897.4535,-247.8692"/>
</g>
<!-- [root] module.vpc.var.public_subnet -->
<g id="node19" class="node">
<title>[root] module.vpc.var.public_subnet</title>
<ellipse fill="none" stroke="#000000" cx="1170.2612" cy="-234" rx="138.6071" ry="18"/>
<text text-anchor="middle" x="1170.2612" y="-229.8" font-family="Times,serif" font-size="14.00" fill="#000000">[root] module.vpc.var.public_subnet</text>
</g>
<!-- [root] module.vpc.aws_subnet.public&#45;&gt;[root] module.vpc.var.public_subnet -->
<g id="edge16" class="edge">
<title>[root] module.vpc.aws_subnet.public&#45;&gt;[root] module.vpc.var.public_subnet</title>
<path fill="none" stroke="#000000" d="M1170.2612,-287.8314C1170.2612,-280.131 1170.2612,-270.9743 1170.2612,-262.4166"/>
<polygon fill="#000000" stroke="#000000" points="1173.7613,-262.4132 1170.2612,-252.4133 1166.7613,-262.4133 1173.7613,-262.4132"/>
</g>
<!-- [root] module.vpc.provider.aws -->
<g id="node9" class="node">
<title>[root] module.vpc.provider.aws</title>
<polygon fill="none" stroke="#000000" points="257.2612,-180 117.0041,-162 257.2612,-144 397.5184,-162 257.2612,-180"/>
<text text-anchor="middle" x="257.2612" y="-157.8" font-family="Times,serif" font-size="14.00" fill="#000000">module.vpc.provider.aws</text>
</g>
<!-- [root] module.vpc.aws_vpc.tfb&#45;&gt;[root] module.vpc.provider.aws -->
<g id="edge17" class="edge">
<title>[root] module.vpc.aws_vpc.tfb&#45;&gt;[root] module.vpc.provider.aws</title>
<path fill="none" stroke="#000000" d="M733.3689,-223.9887C628.8621,-210.382 442.8944,-186.1692 336.9546,-172.376"/>
<polygon fill="#000000" stroke="#000000" points="337.3259,-168.8949 326.9576,-171.0744 336.422,-175.8363 337.3259,-168.8949"/>
</g>
<!-- [root] module.vpc.var.cidr -->
<g id="node20" class="node">
<title>[root] module.vpc.var.cidr</title>
<ellipse fill="none" stroke="#000000" cx="518.2612" cy="-162" rx="102.8747" ry="18"/>
<text text-anchor="middle" x="518.2612" y="-157.8" font-family="Times,serif" font-size="14.00" fill="#000000">[root] module.vpc.var.cidr</text>
</g>
<!-- [root] module.vpc.aws_vpc.tfb&#45;&gt;[root] module.vpc.var.cidr -->
<g id="edge18" class="edge">
<title>[root] module.vpc.aws_vpc.tfb&#45;&gt;[root] module.vpc.var.cidr</title>
<path fill="none" stroke="#000000" d="M736.9542,-215.9243C691.25,-204.6548 632.786,-190.239 587.8073,-179.1484"/>
<polygon fill="#000000" stroke="#000000" points="588.392,-175.6878 577.8449,-176.6919 586.7161,-182.4842 588.392,-175.6878"/>
</g>
<!-- [root] module.vpc.var.enable_dns_hostnames -->
<g id="node21" class="node">
<title>[root] module.vpc.var.enable_dns_hostnames</title>
<ellipse fill="none" stroke="#000000" cx="810.2612" cy="-162" rx="170.9546" ry="18"/>
<text text-anchor="middle" x="810.2612" y="-157.8" font-family="Times,serif" font-size="14.00" fill="#000000">[root] module.vpc.var.enable_dns_hostnames</text>
</g>
<!-- [root] module.vpc.aws_vpc.tfb&#45;&gt;[root] module.vpc.var.enable_dns_hostnames -->
<g id="edge19" class="edge">
<title>[root] module.vpc.aws_vpc.tfb&#45;&gt;[root] module.vpc.var.enable_dns_hostnames</title>
<path fill="none" stroke="#000000" d="M810.2612,-215.8314C810.2612,-208.131 810.2612,-198.9743 810.2612,-190.4166"/>
<polygon fill="#000000" stroke="#000000" points="813.7613,-190.4132 810.2612,-180.4133 806.7613,-190.4133 813.7613,-190.4132"/>
</g>
<!-- [root] module.vpc.var.enable_dns_support -->
<g id="node22" class="node">
<title>[root] module.vpc.var.enable_dns_support</title>
<ellipse fill="none" stroke="#000000" cx="1159.2612" cy="-162" rx="159.8465" ry="18"/>
<text text-anchor="middle" x="1159.2612" y="-157.8" font-family="Times,serif" font-size="14.00" fill="#000000">[root] module.vpc.var.enable_dns_support</text>
</g>
<!-- [root] module.vpc.aws_vpc.tfb&#45;&gt;[root] module.vpc.var.enable_dns_support -->
<g id="edge20" class="edge">
<title>[root] module.vpc.aws_vpc.tfb&#45;&gt;[root] module.vpc.var.enable_dns_support</title>
<path fill="none" stroke="#000000" d="M887.2828,-218.1102C942.0096,-206.8198 1015.5703,-191.644 1072.3904,-179.9218"/>
<polygon fill="#000000" stroke="#000000" points="1073.3498,-183.2976 1082.4364,-177.8493 1071.9354,-176.442 1073.3498,-183.2976"/>
</g>
<!-- [root] module.vpc.var.name -->
<g id="node23" class="node">
<title>[root] module.vpc.var.name</title>
<ellipse fill="none" stroke="#000000" cx="1445.2612" cy="-162" rx="108.1787" ry="18"/>
<text text-anchor="middle" x="1445.2612" y="-157.8" font-family="Times,serif" font-size="14.00" fill="#000000">[root] module.vpc.var.name</text>
</g>
<!-- [root] module.vpc.aws_vpc.tfb&#45;&gt;[root] module.vpc.var.name -->
<g id="edge21" class="edge">
<title>[root] module.vpc.aws_vpc.tfb&#45;&gt;[root] module.vpc.var.name</title>
<path fill="none" stroke="#000000" d="M887.1906,-227.1621C988.4717,-217.8892 1172.0022,-200.1525 1328.2612,-180 1337.6404,-178.7904 1347.4281,-177.434 1357.1743,-176.0228"/>
<polygon fill="#000000" stroke="#000000" points="1357.9117,-179.4521 1367.2969,-174.5361 1356.8945,-172.5264 1357.9117,-179.4521"/>
</g>
<!-- [root] provider.aws -->
<g id="node10" class="node">
<title>[root] provider.aws</title>
<polygon fill="none" stroke="#000000" points="257.2612,-108 178.6529,-90 257.2612,-72 335.8696,-90 257.2612,-108"/>
<text text-anchor="middle" x="257.2612" y="-85.8" font-family="Times,serif" font-size="14.00" fill="#000000">provider.aws</text>
</g>
<!-- [root] module.vpc.provider.aws&#45;&gt;[root] provider.aws -->
<g id="edge25" class="edge">
<title>[root] module.vpc.provider.aws&#45;&gt;[root] provider.aws</title>
<path fill="none" stroke="#000000" d="M257.2612,-143.8314C257.2612,-136.131 257.2612,-126.9743 257.2612,-118.4166"/>
<polygon fill="#000000" stroke="#000000" points="260.7613,-118.4132 257.2612,-108.4133 253.7613,-118.4133 260.7613,-118.4132"/>
</g>
<!-- [root] var.region -->
<g id="node27" class="node">
<title>[root] var.region</title>
<ellipse fill="none" stroke="#000000" cx="257.2612" cy="-18" rx="68.1287" ry="18"/>
<text text-anchor="middle" x="257.2612" y="-13.8" font-family="Times,serif" font-size="14.00" fill="#000000">[root] var.region</text>
</g>
<!-- [root] provider.aws&#45;&gt;[root] var.region -->
<g id="edge29" class="edge">
<title>[root] provider.aws&#45;&gt;[root] var.region</title>
<path fill="none" stroke="#000000" d="M257.2612,-71.8314C257.2612,-64.131 257.2612,-54.9743 257.2612,-46.4166"/>
<polygon fill="#000000" stroke="#000000" points="260.7613,-46.4132 257.2612,-36.4133 253.7613,-46.4133 260.7613,-46.4132"/>
</g>
<!-- [root] module.vpc.output.public_subnet_id&#45;&gt;[root] module.vpc.aws_subnet.public -->
<g id="edge23" class="edge">
<title>[root] module.vpc.output.public_subnet_id&#45;&gt;[root] module.vpc.aws_subnet.public</title>
<path fill="none" stroke="#000000" d="M1312.7517,-360.5708C1286.8941,-350.6679 1254.2953,-338.1833 1226.8059,-327.6554"/>
<polygon fill="#000000" stroke="#000000" points="1227.9054,-324.3286 1217.315,-324.0206 1225.4018,-330.8656 1227.9054,-324.3286"/>
</g>
<!-- [root] module.vpc.output.cidr&#45;&gt;[root] module.vpc.aws_vpc.tfb -->
<g id="edge22" class="edge">
<title>[root] module.vpc.output.cidr&#45;&gt;[root] module.vpc.aws_vpc.tfb</title>
<path fill="none" stroke="#000000" d="M908.7919,-288.5708C891.6143,-279.0571 870.1346,-267.1606 851.6183,-256.9055"/>
<polygon fill="#000000" stroke="#000000" points="853.2421,-253.8039 842.7984,-252.0206 849.8506,-259.9274 853.2421,-253.8039"/>
</g>
<!-- [root] module.vpc.output.vpc_id&#45;&gt;[root] module.vpc.aws_vpc.tfb -->
<g id="edge24" class="edge">
<title>[root] module.vpc.output.vpc_id&#45;&gt;[root] module.vpc.aws_vpc.tfb</title>
<path fill="none" stroke="#000000" d="M713.5736,-288.3868C730.2124,-279.0275 750.8806,-267.4016 768.8317,-257.3041"/>
<polygon fill="#000000" stroke="#000000" points="770.9358,-260.1364 777.9356,-252.1832 767.5039,-254.0353 770.9358,-260.1364"/>
</g>
<!-- [root] output.addresses -->
<g id="node24" class="node">
<title>[root] output.addresses</title>
<ellipse fill="none" stroke="#000000" cx="639.2612" cy="-522" rx="91.3067" ry="18"/>
<text text-anchor="middle" x="639.2612" y="-517.8" font-family="Times,serif" font-size="14.00" fill="#000000">[root] output.addresses</text>
</g>
<!-- [root] output.addresses&#45;&gt;[root] aws_instance.web -->
<g id="edge26" class="edge">
<title>[root] output.addresses&#45;&gt;[root] aws_instance.web</title>
<path fill="none" stroke="#000000" d="M639.2612,-503.8314C639.2612,-496.131 639.2612,-486.9743 639.2612,-478.4166"/>
<polygon fill="#000000" stroke="#000000" points="642.7613,-478.4132 639.2612,-468.4133 635.7613,-478.4133 642.7613,-478.4132"/>
</g>
<!-- [root] output.elb_address -->
<g id="node25" class="node">
<title>[root] output.elb_address</title>
<ellipse fill="none" stroke="#000000" cx="492.2612" cy="-594" rx="99.0243" ry="18"/>
<text text-anchor="middle" x="492.2612" y="-589.8" font-family="Times,serif" font-size="14.00" fill="#000000">[root] output.elb_address</text>
</g>
<!-- [root] output.elb_address&#45;&gt;[root] aws_elb.web -->
<g id="edge27" class="edge">
<title>[root] output.elb_address&#45;&gt;[root] aws_elb.web</title>
<path fill="none" stroke="#000000" d="M490.4948,-575.8314C489.7462,-568.131 488.856,-558.9743 488.024,-550.4166"/>
<polygon fill="#000000" stroke="#000000" points="491.5027,-550.0276 487.0514,-540.4133 484.5356,-550.7051 491.5027,-550.0276"/>
</g>
<!-- [root] output.public_subnet_id -->
<g id="node26" class="node">
<title>[root] output.public_subnet_id</title>
<ellipse fill="none" stroke="#000000" cx="1144.2612" cy="-450" rx="118.3607" ry="18"/>
<text text-anchor="middle" x="1144.2612" y="-445.8" font-family="Times,serif" font-size="14.00" fill="#000000">[root] output.public_subnet_id</text>
</g>
<!-- [root] output.public_subnet_id&#45;&gt;[root] module.vpc.output.public_subnet_id -->
<g id="edge28" class="edge">
<title>[root] output.public_subnet_id&#45;&gt;[root] module.vpc.output.public_subnet_id</title>
<path fill="none" stroke="#000000" d="M1193.0889,-433.572C1224.1894,-423.1083 1264.7104,-409.4751 1297.8335,-398.3308"/>
<polygon fill="#000000" stroke="#000000" points="1299.0482,-401.615 1307.41,-395.1088 1296.816,-394.9804 1299.0482,-401.615"/>
</g>
<!-- [root] root -->
<g id="node28" class="node">
<title>[root] root</title>
<ellipse fill="none" stroke="#000000" cx="555.2612" cy="-666" rx="46.8976" ry="18"/>
<text text-anchor="middle" x="555.2612" y="-661.8" font-family="Times,serif" font-size="14.00" fill="#000000">[root] root</text>
</g>
<!-- [root] root&#45;&gt;[root] module.vpc.aws_route.internet_access -->
<g id="edge30" class="edge">
<title>[root] root&#45;&gt;[root] module.vpc.aws_route.internet_access</title>
<path fill="none" stroke="#000000" d="M514.1085,-657.3866C463.3701,-646.767 375.5073,-628.3771 307.4455,-614.1316"/>
<polygon fill="#000000" stroke="#000000" points="308.059,-610.6842 297.554,-612.0613 306.6249,-617.5358 308.059,-610.6842"/>
</g>
<!-- [root] root&#45;&gt;[root] output.addresses -->
<g id="edge31" class="edge">
<title>[root] root&#45;&gt;[root] output.addresses</title>
<path fill="none" stroke="#000000" d="M571.6196,-648.9765C580.8223,-638.802 592.0723,-625.302 600.2612,-612 612.4637,-592.1785 622.7539,-567.8659 629.6951,-549.5091"/>
<polygon fill="#000000" stroke="#000000" points="633.0292,-550.5834 633.1977,-539.9899 626.4598,-548.1661 633.0292,-550.5834"/>
</g>
<!-- [root] root&#45;&gt;[root] output.elb_address -->
<g id="edge32" class="edge">
<title>[root] root&#45;&gt;[root] output.elb_address</title>
<path fill="none" stroke="#000000" d="M540.3311,-648.937C532.6365,-640.1431 523.0978,-629.2418 514.5509,-619.4739"/>
<polygon fill="#000000" stroke="#000000" points="517.1824,-617.1663 507.9633,-611.9453 511.9144,-621.7758 517.1824,-617.1663"/>
</g>
<!-- [root] root&#45;&gt;[root] output.public_subnet_id -->
<g id="edge33" class="edge">
<title>[root] root&#45;&gt;[root] output.public_subnet_id</title>
<path fill="none" stroke="#000000" d="M589.4742,-653.4533C687.2661,-617.5907 968.6542,-514.3992 1088.8046,-470.3372"/>
<polygon fill="#000000" stroke="#000000" points="1090.3643,-473.4933 1098.5478,-466.7642 1087.9542,-466.9212 1090.3643,-473.4933"/>
</g>
</g>
</svg>
